<svg xmlns="http://www.w3.org/2000/svg" viewBox="0 0 64 64" role="img" aria-label="Quran icon">
  <defs>
    <linearGradient id="cover" x1="0%" x2="100%" y1="0%" y2="100%">
      <stop offset="0%" stop-color="#0f3c24" />
      <stop offset="100%" stop-color="#0b2c1a" />
    </linearGradient>
    <linearGradient id="ribbon" x1="0%" x2="0%" y1="0%" y2="100%">
      <stop offset="0%" stop-color="#f4d37b" />
      <stop offset="100%" stop-color="#d7a736" />
    </linearGradient>
  </defs>
  <rect width="58" height="52" x="3" y="6" rx="8" fill="url(#cover)" stroke="#e7c86b" stroke-width="2.6"/>
  <path d="M21 10v44" stroke="#f4d37b" stroke-width="2.4" stroke-linecap="round" opacity="0.8" />
  <path d="M43 10v44" stroke="#f4d37b" stroke-width="2.4" stroke-linecap="round" opacity="0.8" />
  <rect x="12" y="16" width="40" height="32" rx="5" fill="#103824" stroke="#f4d37b" stroke-width="2" opacity="0.95"/>
  <path d="M32 20.5c-5.5 0-10 4.1-10 9 0 4.3 2.9 7.9 7 8.9v4.6l3-2.6 3 2.6v-4.6c4.1-1 7-4.6 7-8.9 0-4.9-4.5-9-10-9z" fill="#0f2719" stroke="#f4d37b" stroke-width="1.8" stroke-linejoin="round" />
  <path d="M32 24.5l1.7 3.4 3.7.5-2.7 2.7.7 3.8-3.4-1.8-3.4 1.8.7-3.8-2.7-2.7 3.7-.5z" fill="#f4d37b" />
  <path d="M32 8c2.2 0 4 1.8 4 4v5h-8v-5c0-2.2 1.8-4 4-4z" fill="url(#ribbon)" stroke="#b98219" stroke-width="1.4" />
</svg>
